<svg width="23" height="17" viewBox="0 0 23 17" fill="none" xmlns="http://www.w3.org/2000/svg">
<path fill-rule="evenodd" clip-rule="evenodd" d="M21.2732 4.06717L20.762 8.45709L15.68 8.49194L15.1984 4.06717C13.9945 4.06717 13.5485 3.45719 13.5485 2.2566H15.1984C15.2122 1.34841 15.3247 0.196222 16.2385 0.188477C16.2385 0.188477 16.2286 2.2566 18.2358 2.2566C20.243 2.2566 20.2311 0.188477 20.2311 0.188477C21.1469 0.188477 21.2594 1.35034 21.2712 2.2566H22.6725C22.6725 3.45719 22.4771 4.06717 21.2732 4.06717ZM14.2373 4.93857C14.3261 5.62601 14.7524 9.3188 14.7524 9.3188L18.3957 9.58216L18.3128 15.9724L16.3905 15.9008L16.1931 12.1421H14.4169L14.1524 16.0479L12.3584 16.0344L11.5492 2.24498H12.3386C12.3307 3.68957 13.3077 4.93857 14.2373 4.93857ZM9.00916 2.13073H10.3907L10.8032 12.0666L9.25783 12.0453L9.00916 2.13073ZM6.04874 3.26548H7.59211L8.15261 13.1413L6.91318 13.1239L6.04874 3.26548ZM3.63107 12.8683L5.56521 12.9496L6.03098 16.0751L4.52117 16.1235L3.63107 12.8683ZM2.4923 16.0789L0.883803 16.0499L0.118042 10.4632L1.48575 8.24795V4.37507C1.48575 2.94404 2.11336 2.23142 3.73567 2.23142H4.61985L5.43495 12.084L2.84557 12.0492L2.4923 16.0789Z" fill="black"/>
</svg>
