<svg width="9" height="23" viewBox="0 0 9 23" fill="none" xmlns="http://www.w3.org/2000/svg">
<path fill-rule="evenodd" clip-rule="evenodd" d="M5.58846 12.028L5.45228 12.5857L7.32722 13.5927C6.89894 14.8262 6.35225 16.2204 5.77793 17.5391L3.97997 17.3203V17.9129L5.22729 18.7881C4.24049 20.9182 3.25368 22.63 2.74054 22.7365C2.18793 22.4383 1.48927 18.9256 1.06297 15.5368L2.94975 15.1592L3.06027 14.6751L0.905086 14.162C0.707724 12.241 0.616938 10.5176 0.725487 9.65393C2.56687 8.23452 6.84763 8.89872 8.16797 10.5583C8.07646 11.1433 7.93989 11.7207 7.75944 12.2856L5.58846 12.028ZM6.29502 6.29808L5.997 7.70587L3.87537 7.83174L2.64186 2.07082L4.27009 1.87718L4.95099 5.04714L5.79964 0.316406L7.48313 0.612682L6.89105 3.43989L8.04758 4.36163L6.29502 6.29808Z" fill="black"/>
</svg>
