<svg width="19" height="20" viewBox="0 0 19 20" fill="none" xmlns="http://www.w3.org/2000/svg">
<path fill-rule="evenodd" clip-rule="evenodd" d="M15.7543 5.82869C16.52 7.59086 16.7904 9.2194 16.6661 10.6369L12.0024 6.05913C12.0616 5.32752 12.2189 4.60676 12.4702 3.91549L10.9465 2.66067C10.9465 2.66067 11.5505 1.87254 13.0228 2.22691L11.9018 0.731975C11.9018 0.731975 13.8043 0.040665 14.6451 1.21609L14.5839 0C14.5839 0 16.4628 0.0910129 16.6444 2.13009C17.2954 2.46174 17.8415 2.96201 18.2232 3.57661L17.0292 3.90387C17.0272 5.54597 15.7543 5.82869 15.7543 5.82869ZM17.0509 13.2298L16.1213 14.1767L9.80579 7.54438L11.1301 6.50838L17.0509 13.2298ZM12.7761 14.8486L6.10329 6.96151L7.33088 6.04751L14.0056 13.8456L12.7761 14.8486ZM5.5645 11.8568L0.0916748 12.4145C0.0916748 12.4145 0.208118 9.41886 2.85473 9.40917L0.590999 7.69542C0.590999 7.69542 3.11722 5.58277 5.22306 7.9704C6.23947 9.12065 12.2333 16.0221 12.2333 16.0221C9.40317 16.1538 6.4546 15.3773 5.5645 11.8568ZM9.15647 16.6863L10.238 17.002L10.2735 18.0864L11.7222 18.3536L11.0077 19.864L9.60251 19.2831L8.26045 19.4399L7.91309 18.6053L9.08739 18.1445L9.15647 16.6863ZM12.6892 16.88L13.7826 16.512L14.3905 17.9702L15.9694 18.1115L15.249 19.5426L14.0056 19.1708L12.4267 19.3141L12.1504 18.6441L13.1807 18.2568L12.6892 16.88Z" fill="black"/>
</svg>
