<svg width="258" height="152" viewBox="0 0 258 152" fill="none" xmlns="http://www.w3.org/2000/svg">
<path fill-rule="evenodd" clip-rule="evenodd" d="M59.7408 145.034C95.943 153.363 179.419 160.42 223.705 122.022C275.155 77.4114 254.494 39.6926 246.832 25.7036C246.25 24.6413 245.743 23.7158 245.348 22.9346C239.756 11.8656 197.002 -15.8471 154.94 14.5274C138.771 29.742 136.445 40.8327 133.779 53.5464C132.191 61.1214 130.482 69.2726 125.651 79.2155C125.532 79.4622 125.412 79.7083 125.293 79.9538C112.544 106.204 103.249 125.341 61.179 143.97L59.7408 145.034ZM0.0993652 126.814C18.4017 131.025 60.6038 134.593 82.993 115.18C109.004 92.6266 98.5589 73.5575 94.685 66.4852C94.3908 65.9482 94.1345 65.4803 93.935 65.0853C91.1078 59.4893 69.4933 45.4788 48.2282 60.835C40.054 68.5268 38.8782 74.1339 37.5303 80.5614C36.7272 84.3911 35.8631 88.512 33.4211 93.5387L33.2398 93.9119C26.7944 107.183 22.0954 116.858 0.826464 126.276L0.0993652 126.814Z" fill="#DF7009"/>
</svg>
