<svg width="47" height="47" viewBox="0 0 47 47" fill="none" xmlns="http://www.w3.org/2000/svg">
<path d="M41.6007 0H5.22003C3.90429 0 2.64244 0.52275 1.71208 1.45325C0.781708 2.38375 0.259033 3.64578 0.259033 4.96171L0.259033 41.3475C0.259033 42.6635 0.781708 43.9255 1.71208 44.856C2.64244 45.7865 3.90429 46.3092 5.22003 46.3092H19.4054V30.5651H12.8941V23.1546H19.4054V17.5065C19.4054 11.0822 23.2295 7.53352 29.0866 7.53352C31.8916 7.53352 34.8248 8.03383 34.8248 8.03383V14.3393H31.5929C28.4086 14.3393 27.4153 16.3157 27.4153 18.3428V23.1546H34.524L33.3871 30.5651H27.4153V46.3092H41.6007C42.9164 46.3092 44.1783 45.7865 45.1086 44.856C46.039 43.9255 46.5617 42.6635 46.5617 41.3475V4.96171C46.5617 3.64578 46.039 2.38375 45.1086 1.45325C44.1783 0.52275 42.9164 0 41.6007 0Z" fill="black"/>
</svg>
