<svg width="20" height="19" viewBox="0 0 20 19" fill="none" xmlns="http://www.w3.org/2000/svg">
<path fill-rule="evenodd" clip-rule="evenodd" d="M16.972 8.23318L10.8222 2.50131C12.7642 0.590044 15.772 -0.366557 19.5061 1.17872C20.0883 3.2817 19.135 6.40131 16.972 8.23318ZM14.6707 2.32122C13.9109 3.06675 15.0655 4.24218 15.7977 3.52957C16.6601 2.68334 15.4108 1.58925 14.6707 2.32122ZM14.8503 10.1716L8.32163 3.72515L9.3262 2.6175L15.9792 9.25369L14.8503 10.1716ZM12.8333 12.261L7.54403 6.99773L8.27032 5.43309L14.2859 11.4864L12.8333 12.261ZM8.47755 11.8737L5.25069 8.52365L5.96909 7.02678L9.88473 11.1688L8.47755 11.8737ZM5.95922 11.0159L7.93283 12.9213C8.67294 17.1156 6.44276 18.537 6.44276 18.537L4.32507 15.0843L0.0916748 12.9736C0.0916748 12.9736 3.01657 10.6828 5.95922 11.0159Z" fill="black"/>
</svg>
