<svg width="47" height="47" viewBox="0 0 47 47" fill="none" xmlns="http://www.w3.org/2000/svg">
<path d="M46.323 13.6912C46.2947 11.7445 45.9347 9.8132 45.2456 7.99251C44.0397 4.88346 41.5842 2.42501 38.4756 1.22151C36.6783 0.545178 34.7781 0.182583 32.8549 0.141438C30.3814 0.0308593 29.5971 0 23.3182 0C17.0393 0 16.2345 1.72439e-07 13.7789 0.141438C11.8582 0.182583 9.9581 0.545178 8.16081 1.22151C5.05219 2.42501 2.5941 4.88346 1.39077 7.99251C0.714533 9.79006 0.349419 11.6905 0.313422 13.6114C0.20286 16.0879 0.169434 16.8722 0.169434 23.1521C0.169434 29.4319 0.169434 30.2342 0.313422 32.6927C0.351991 34.6162 0.714533 36.514 1.39077 38.3167C2.59667 41.4232 5.05219 43.8817 8.16338 45.0852C9.95295 45.7846 11.8531 46.1807 13.7815 46.2424C16.2576 46.353 17.0418 46.3864 23.3208 46.3864C29.5997 46.3864 30.4045 46.3864 32.86 46.2424C34.7807 46.2038 36.6809 45.8412 38.4807 45.1649C41.5893 43.9588 44.0449 41.5004 45.2508 38.3939C45.927 36.5938 46.2895 34.6959 46.3281 32.7698C46.4387 30.2959 46.4721 29.5116 46.4721 23.2292C46.4669 16.9494 46.4669 16.1522 46.323 13.6912ZM23.3028 35.0277C16.7359 35.0277 11.416 29.707 11.416 23.1392C11.416 16.5713 16.7359 11.2507 23.3028 11.2507C29.8645 11.2507 35.1895 16.5713 35.1895 23.1392C35.1895 29.707 29.8645 35.0277 23.3028 35.0277ZM35.6627 13.5832C34.1276 13.5832 32.8909 12.3436 32.8909 10.811C32.8909 9.27831 34.1276 8.0388 35.6627 8.0388C37.1925 8.0388 38.4319 9.27831 38.4319 10.811C38.4319 12.3436 37.1925 13.5832 35.6627 13.5832Z" fill="black"/>
<path d="M23.3028 30.862C27.5672 30.862 31.0242 27.4045 31.0242 23.1395C31.0242 18.8745 27.5672 15.417 23.3028 15.417C19.0384 15.417 15.5814 18.8745 15.5814 23.1395C15.5814 27.4045 19.0384 30.862 23.3028 30.862Z" fill="black"/>
</svg>
