<svg width="525" height="86" viewBox="0 0 525 86" fill="none" xmlns="http://www.w3.org/2000/svg">
<mask id="path-1-outside-1_15_23" maskUnits="userSpaceOnUse" x="-18" y="-18" width="563" height="122" fill="black">
<rect fill="white" x="-18" y="-18" width="563" height="122"/>
<path d="M45.48 57.96C45.48 74.88 36.84 85.2 18.6 85.2C7.32 85.2 0.6 79.92 0.6 72.6V63H1.32C4.08 65.28 7.44 66.72 13.92 66.72C20.28 66.72 22.68 63 22.68 57.72V1.19999H30.72C39.12 1.19999 45.48 6 45.48 14.28V57.96ZM133.706 84H123.386C115.106 84 110.786 81.6 109.346 74.16C108.746 71.16 108.026 67.92 107.066 64.44H78.5063C76.7063 70.44 75.2663 78.84 74.3063 84H65.0663C57.7463 84 54.5063 79.92 54.5063 73.8C54.5063 61.8 70.2263 16.2 84.6263 1.19999H93.5063C101.546 1.19999 106.826 5.28 109.586 9.84C117.506 23.04 129.986 55.8 133.706 84ZM102.386 46.56C99.9863 38.4 96.3863 28.44 93.0263 21.84C89.4263 28.68 85.8263 38.4 83.4263 46.56H102.386ZM150.737 1.19999C160.577 1.19999 165.497 7.68 165.497 14.16V36.12C177.137 19.68 180.617 15.12 188.777 6.71999C193.457 1.92 196.457 1.19999 203.297 1.19999H219.977V1.79999C209.537 11.76 195.617 28.32 187.217 39.48C192.857 47.4 198.377 55.8 205.097 62.88C211.097 69.24 213.257 71.04 219.257 72.36C216.737 81.84 213.017 84.84 205.457 84.84C200.897 84.84 194.537 82.56 191.057 78.72C181.217 67.92 174.257 57.84 165.497 44.64V84H156.377C146.537 84 142.697 77.28 142.697 70.92V1.19999H150.737ZM301.284 84H290.964C282.684 84 278.364 81.6 276.924 74.16C276.324 71.16 275.604 67.92 274.644 64.44H246.084C244.284 70.44 242.844 78.84 241.884 84H232.644C225.324 84 222.084 79.92 222.084 73.8C222.084 61.8 237.804 16.2 252.204 1.19999H261.084C269.124 1.19999 274.404 5.28 277.164 9.84C285.084 23.04 297.564 55.8 301.284 84ZM269.964 46.56C267.564 38.4 263.964 28.44 260.604 21.84C257.004 28.68 253.404 38.4 251.004 46.56H269.964ZM379.635 82.44C376.875 83.88 372.315 84.6 367.395 84.6C359.715 84.6 354.915 81.24 352.515 75.84L346.395 62.4C343.155 55.32 340.875 53.88 335.475 53.28L331.875 52.92V84H323.115C314.235 84 309.075 78.6 309.075 70.92V3.6C314.835 1.56 327.555 -5.72205e-06 333.915 -5.72205e-06H343.155C360.915 -5.72205e-06 373.515 9.72 373.515 24.72C373.515 35.76 366.315 45.12 358.395 46.92C362.355 48.72 364.395 51.72 367.515 58.32L373.875 71.76C376.275 76.68 378.435 80.4 379.635 81.84V82.44ZM341.115 18H336.435C335.475 18 333.555 18.24 331.875 18.48V36.72C334.635 37.08 337.515 37.08 340.995 37.08C347.475 37.08 350.715 32.16 350.715 27.48C350.715 21.48 347.715 18 341.115 18ZM451.808 9.24C451.808 14.4 446.048 20.28 439.088 20.28H427.328V84H417.368C410.527 84 404.528 80.88 404.528 72.12V20.28H380.888V12.36C380.888 7.31999 385.328 1.32 393.728 1.32H451.808V9.24ZM524.409 84H514.089C505.809 84 501.489 81.6 500.049 74.16C499.449 71.16 498.729 67.92 497.769 64.44H469.209C467.409 70.44 465.969 78.84 465.009 84H455.769C448.449 84 445.209 79.92 445.209 73.8C445.209 61.8 460.929 16.2 475.329 1.19999H484.209C492.249 1.19999 497.529 5.28 500.289 9.84C508.209 23.04 520.689 55.8 524.409 84ZM493.089 46.56C490.689 38.4 487.089 28.44 483.729 21.84C480.129 28.68 476.529 38.4 474.129 46.56H493.089Z"/>
</mask>
<path d="M45.48 57.96C45.48 74.88 36.84 85.2 18.6 85.2C7.32 85.2 0.6 79.92 0.6 72.6V63H1.32C4.08 65.28 7.44 66.72 13.92 66.72C20.28 66.72 22.68 63 22.68 57.72V1.19999H30.72C39.12 1.19999 45.48 6 45.48 14.28V57.96ZM133.706 84H123.386C115.106 84 110.786 81.6 109.346 74.16C108.746 71.16 108.026 67.92 107.066 64.44H78.5063C76.7063 70.44 75.2663 78.84 74.3063 84H65.0663C57.7463 84 54.5063 79.92 54.5063 73.8C54.5063 61.8 70.2263 16.2 84.6263 1.19999H93.5063C101.546 1.19999 106.826 5.28 109.586 9.84C117.506 23.04 129.986 55.8 133.706 84ZM102.386 46.56C99.9863 38.4 96.3863 28.44 93.0263 21.84C89.4263 28.68 85.8263 38.4 83.4263 46.56H102.386ZM150.737 1.19999C160.577 1.19999 165.497 7.68 165.497 14.16V36.12C177.137 19.68 180.617 15.12 188.777 6.71999C193.457 1.92 196.457 1.19999 203.297 1.19999H219.977V1.79999C209.537 11.76 195.617 28.32 187.217 39.48C192.857 47.4 198.377 55.8 205.097 62.88C211.097 69.24 213.257 71.04 219.257 72.36C216.737 81.84 213.017 84.84 205.457 84.84C200.897 84.84 194.537 82.56 191.057 78.72C181.217 67.92 174.257 57.84 165.497 44.64V84H156.377C146.537 84 142.697 77.28 142.697 70.92V1.19999H150.737ZM301.284 84H290.964C282.684 84 278.364 81.6 276.924 74.16C276.324 71.16 275.604 67.92 274.644 64.44H246.084C244.284 70.44 242.844 78.84 241.884 84H232.644C225.324 84 222.084 79.92 222.084 73.8C222.084 61.8 237.804 16.2 252.204 1.19999H261.084C269.124 1.19999 274.404 5.28 277.164 9.84C285.084 23.04 297.564 55.8 301.284 84ZM269.964 46.56C267.564 38.4 263.964 28.44 260.604 21.84C257.004 28.68 253.404 38.4 251.004 46.56H269.964ZM379.635 82.44C376.875 83.88 372.315 84.6 367.395 84.6C359.715 84.6 354.915 81.24 352.515 75.84L346.395 62.4C343.155 55.32 340.875 53.88 335.475 53.28L331.875 52.92V84H323.115C314.235 84 309.075 78.6 309.075 70.92V3.6C314.835 1.56 327.555 -5.72205e-06 333.915 -5.72205e-06H343.155C360.915 -5.72205e-06 373.515 9.72 373.515 24.72C373.515 35.76 366.315 45.12 358.395 46.92C362.355 48.72 364.395 51.72 367.515 58.32L373.875 71.76C376.275 76.68 378.435 80.4 379.635 81.84V82.44ZM341.115 18H336.435C335.475 18 333.555 18.24 331.875 18.48V36.72C334.635 37.08 337.515 37.08 340.995 37.08C347.475 37.08 350.715 32.16 350.715 27.48C350.715 21.48 347.715 18 341.115 18ZM451.808 9.24C451.808 14.4 446.048 20.28 439.088 20.28H427.328V84H417.368C410.527 84 404.528 80.88 404.528 72.12V20.28H380.888V12.36C380.888 7.31999 385.328 1.32 393.728 1.32H451.808V9.24ZM524.409 84H514.089C505.809 84 501.489 81.6 500.049 74.16C499.449 71.16 498.729 67.92 497.769 64.44H469.209C467.409 70.44 465.969 78.84 465.009 84H455.769C448.449 84 445.209 79.92 445.209 73.8C445.209 61.8 460.929 16.2 475.329 1.19999H484.209C492.249 1.19999 497.529 5.28 500.289 9.84C508.209 23.04 520.689 55.8 524.409 84ZM493.089 46.56C490.689 38.4 487.089 28.44 483.729 21.84C480.129 28.68 476.529 38.4 474.129 46.56H493.089Z" fill="black"/>
<path d="M0.6 63V45H-17.4V63H0.6ZM1.32 63L12.7839 49.1227L7.79325 45H1.32V63ZM22.68 1.19999V-16.8H4.68V1.19999H22.68ZM27.48 57.96C27.48 63.5616 26.0589 65.2854 25.8019 65.5572C25.7119 65.6523 24.3495 67.2 18.6 67.2V103.2C31.0905 103.2 43.1681 99.5877 51.9581 90.2928C60.5811 81.1746 63.48 69.2784 63.48 57.96H27.48ZM18.6 67.2C15.5411 67.2 15.0882 66.4592 15.9192 67.0602C16.3962 67.4053 17.1348 68.1012 17.7378 69.2412C18.3529 70.4043 18.6 71.6051 18.6 72.6H-17.4C-17.4 82.4128 -12.6343 90.8374 -5.17917 96.2298C1.83177 101.301 10.3789 103.2 18.6 103.2V67.2ZM18.6 72.6V63H-17.4V72.6H18.6ZM0.6 81H1.32V45H0.6V81ZM-10.1439 76.8773C-3.54745 82.3265 4.12251 84.72 13.92 84.72V48.72C11.9679 48.72 11.4808 48.4969 11.7623 48.5879C11.9191 48.6386 12.1553 48.735 12.4133 48.8812C12.6629 49.0225 12.7971 49.1336 12.7839 49.1227L-10.1439 76.8773ZM13.92 84.72C20.6695 84.72 28.4665 82.6239 34.2156 76.0711C39.5801 69.9567 40.68 62.7329 40.68 57.72H4.68C4.68 57.7044 4.68053 57.5674 4.71141 57.3273C4.74229 57.0871 4.80808 56.7084 4.95175 56.225C5.24561 55.2364 5.87763 53.7841 7.15445 52.3288C10.1135 48.9561 13.5305 48.72 13.92 48.72V84.72ZM40.68 57.72V1.19999H4.68V57.72H40.68ZM22.68 19.2H30.72V-16.8H22.68V19.2ZM30.72 19.2C31.6309 19.2 30.9006 19.4575 29.6195 18.373C28.9578 17.8128 28.3521 17.0432 27.9443 16.1384C27.5402 15.2417 27.48 14.5471 27.48 14.28H63.48C63.48 5.13476 59.7749 -3.26619 52.8805 -9.103C46.3194 -14.6576 38.2091 -16.8 30.72 -16.8V19.2ZM27.48 14.28V57.96H63.48V14.28H27.48ZM133.706 84V102H154.237L151.552 81.6459L133.706 84ZM109.346 74.16L127.018 70.7396L127.008 70.6847L126.997 70.6299L109.346 74.16ZM107.066 64.44L124.418 59.6533L120.773 46.44H107.066V64.44ZM78.5062 64.44V46.44H65.1137L61.2654 59.2677L78.5062 64.44ZM74.3063 84V102H89.2663L92.0026 87.2923L74.3063 84ZM84.6263 1.19999V-16.8H76.9543L71.6413 -11.2656L84.6263 1.19999ZM109.586 9.84L125.021 0.579071L125.003 0.549274L124.985 0.519547L109.586 9.84ZM102.386 46.56V64.56H126.443L119.655 41.481L102.386 46.56ZM93.0263 21.84L109.067 13.6737L93.2922 -17.3129L77.0977 13.4566L93.0263 21.84ZM83.4263 46.56L66.1577 41.481L59.3697 64.56H83.4263V46.56ZM133.706 66H123.386V102H133.706V66ZM123.386 66C122.112 66 121.637 65.9005 121.675 65.9086C121.765 65.928 122.639 66.1287 123.786 66.8931C125.024 67.7188 125.967 68.7932 126.556 69.8094C127.074 70.7035 127.103 71.1774 127.018 70.7396L91.6742 77.5804C92.9816 84.3353 96.2819 91.8237 103.817 96.8469C110.558 101.341 118.051 102 123.386 102V66ZM126.997 70.6299C126.342 67.3554 125.527 63.672 124.418 59.6533L89.7144 69.2267C90.5258 72.168 91.1507 74.9646 91.6958 77.6901L126.997 70.6299ZM107.066 46.44H78.5062V82.44H107.066V46.44ZM61.2654 59.2677C59.109 66.4558 57.457 76.1545 56.6099 80.7077L92.0026 87.2923C93.0755 81.5255 94.3036 74.4242 95.7471 69.6123L61.2654 59.2677ZM74.3063 66H65.0663V102H74.3063V66ZM65.0663 66C64.7052 66 67.3573 65.9675 69.9849 68.6865C71.1763 69.9193 71.8479 71.227 72.1877 72.2372C72.5076 73.1884 72.5062 73.7797 72.5062 73.8H36.5062C36.5062 79.8691 38.1353 87.5338 44.0976 93.7035C50.1752 99.9925 58.1073 102 65.0663 102V66ZM72.5062 73.8C72.5062 73.9453 72.5197 73.1895 72.8971 71.1912C73.2417 69.3668 73.7879 67.0314 74.5471 64.2619C76.0643 58.7272 78.2779 52.0193 80.9484 45.1334C86.6458 30.4424 93.124 18.3398 97.6112 13.6656L71.6413 -11.2656C61.7285 -0.939816 53.1467 17.2576 47.3841 32.1166C44.3246 40.0057 41.7082 47.8853 39.8279 54.7443C38.1093 61.0139 36.5062 68.1634 36.5062 73.8H72.5062ZM84.6263 19.2H93.5062V-16.8H84.6263V19.2ZM93.5062 19.2C93.9804 19.2 94.2266 19.2582 94.2996 19.2781C94.3729 19.298 94.3656 19.3047 94.3165 19.2754C94.2229 19.2197 94.1918 19.168 94.1873 19.1604L124.985 0.519547C119.312 -8.85439 108.487 -16.8 93.5062 -16.8V19.2ZM94.1514 19.1009C100.729 30.064 112.444 60.4497 115.861 86.3541L151.552 81.6459C147.529 51.1503 134.283 16.0159 125.021 0.579071L94.1514 19.1009ZM119.655 41.481C117.099 32.7923 113.133 21.66 109.067 13.6737L76.9853 30.0063C79.6395 35.22 82.8732 44.0077 85.1177 51.639L119.655 41.481ZM77.0977 13.4566C72.7474 21.7222 68.7501 32.6666 66.1577 41.481L100.695 51.639C102.902 44.1334 106.105 35.6378 108.955 30.2234L77.0977 13.4566ZM83.4263 64.56H102.386V28.56H83.4263V64.56ZM165.497 36.12H147.497V92.6925L180.187 46.5213L165.497 36.12ZM188.777 6.71999L175.889 -5.84582L175.877 -5.83399L175.866 -5.82215L188.777 6.71999ZM219.977 1.19999H237.977V-16.8H219.977V1.19999ZM219.977 1.79999L232.402 14.8238L237.977 9.50512V1.79999H219.977ZM187.217 39.48L172.835 28.6553L164.91 39.1855L172.555 49.9213L187.217 39.48ZM205.097 62.88L218.19 50.528L218.171 50.5081L218.152 50.4883L205.097 62.88ZM219.257 72.36L236.653 76.9842L241.481 58.819L223.124 54.7804L219.257 72.36ZM191.057 78.72L204.395 66.6326L204.379 66.6149L204.362 66.5972L191.057 78.72ZM165.497 44.64L180.495 34.6869L147.497 -15.0359V44.64H165.497ZM165.497 84V102H183.497V84H165.497ZM142.697 1.19999V-16.8H124.697V1.19999H142.697ZM150.737 19.2C151.21 19.2 151.15 19.2743 150.74 19.1166C150.317 18.9544 149.733 18.6245 149.157 18.0558C147.993 16.9054 147.497 15.442 147.497 14.16H183.497C183.497 6.39798 180.541 -1.54539 174.456 -7.55577C168.217 -13.719 159.783 -16.8 150.737 -16.8V19.2ZM147.497 14.16V36.12H183.497V14.16H147.497ZM180.187 46.5213C191.715 30.2401 194.54 26.6204 201.688 19.2621L175.866 -5.82215C166.694 3.61956 162.559 9.11991 150.806 25.7187L180.187 46.5213ZM201.665 19.2858C202.351 18.5823 202.586 18.4333 202.476 18.5116C202.405 18.5615 202.25 18.6646 202.019 18.7864C201.784 18.9103 201.528 19.0234 201.266 19.1166C200.728 19.3084 200.454 19.3137 200.738 19.2829C200.893 19.2662 201.164 19.2437 201.602 19.2267C202.041 19.2095 202.589 19.2 203.297 19.2V-16.8C199.64 -16.8 194.501 -16.689 189.188 -14.7966C183.428 -12.7452 179.255 -9.2983 175.889 -5.84582L201.665 19.2858ZM203.297 19.2H219.977V-16.8H203.297V19.2ZM201.977 1.19999V1.79999H237.977V1.19999H201.977ZM207.552 -11.2238C196.143 -0.339485 181.564 17.0581 172.835 28.6553L201.598 50.3047C209.669 39.5818 222.931 23.8595 232.402 14.8238L207.552 -11.2238ZM172.555 49.9213C177.625 57.0408 184.187 66.9969 192.041 75.2717L218.152 50.4883C212.566 44.6031 208.089 37.7592 201.879 29.0387L172.555 49.9213ZM192.004 75.232C194.833 78.2305 198.105 81.665 201.942 84.3173C206.494 87.463 210.93 88.9585 215.389 89.9396L223.124 54.7804C222.215 54.5804 221.96 54.4711 222.013 54.4923C222.15 54.5468 222.329 54.6458 222.411 54.7027C222.414 54.7048 222.134 54.5118 221.399 53.813C220.637 53.0886 219.659 52.0857 218.19 50.528L192.004 75.232ZM201.861 67.7358C201.433 69.3461 201.122 70.0213 201.057 70.1479C201.024 70.2128 201.37 69.5125 202.329 68.666C203.359 67.7551 204.484 67.2164 205.341 66.9627C206.046 66.7542 206.228 66.84 205.457 66.84V102.84C211.539 102.84 219.4 101.621 226.165 95.644C232.357 90.1728 235.087 82.8734 236.653 76.9842L201.861 67.7358ZM205.457 66.84C205.628 66.84 205.709 66.8502 205.696 66.8487C205.686 66.8476 205.62 66.8393 205.504 66.8148C205.258 66.7626 204.936 66.6689 204.603 66.5342C204.268 66.3983 204.049 66.2731 203.96 66.2149C203.858 66.1485 204.052 66.2543 204.395 66.6326L177.719 90.8074C181.773 95.2805 186.774 98.1554 191.1 99.9058C195.449 101.665 200.475 102.84 205.457 102.84V66.84ZM204.362 66.5972C195.509 56.8795 189.181 47.7763 180.495 34.6869L150.499 54.5931C159.332 67.9037 166.925 78.9605 177.751 90.8428L204.362 66.5972ZM147.497 44.64V84H183.497V44.64H147.497ZM165.497 66H156.377V102H165.497V66ZM156.377 66C155.978 66 156.298 65.9367 157.034 66.2448C157.804 66.567 158.633 67.1318 159.327 67.9169C160.65 69.4113 160.697 70.7048 160.697 70.92H124.697C124.697 77.4952 126.664 85.3286 132.367 91.7731C138.431 98.6263 147.034 102 156.377 102V66ZM160.697 70.92V1.19999H124.697V70.92H160.697ZM142.697 19.2H150.737V-16.8H142.697V19.2ZM301.284 84V102H321.815L319.13 81.6459L301.284 84ZM276.924 74.16L294.596 70.7396L294.586 70.6847L294.575 70.6299L276.924 74.16ZM274.644 64.44L291.996 59.6533L288.351 46.44H274.644V64.44ZM246.084 64.44V46.44H232.692L228.844 59.2677L246.084 64.44ZM241.884 84V102H256.844L259.581 87.2923L241.884 84ZM252.204 1.19999V-16.8H244.532L239.219 -11.2656L252.204 1.19999ZM277.164 9.84L292.599 0.579071L292.581 0.549274L292.563 0.519547L277.164 9.84ZM269.964 46.56V64.56H294.021L287.233 41.481L269.964 46.56ZM260.604 21.84L276.645 13.6737L260.87 -17.3129L244.676 13.4566L260.604 21.84ZM251.004 46.56L233.736 41.481L226.948 64.56H251.004V46.56ZM301.284 66H290.964V102H301.284V66ZM290.964 66C289.69 66 289.215 65.9005 289.253 65.9086C289.343 65.928 290.217 66.1287 291.364 66.8931C292.602 67.7188 293.545 68.7932 294.134 69.8094C294.652 70.7035 294.681 71.1774 294.596 70.7396L259.252 77.5804C260.56 84.3353 263.86 91.8237 271.395 96.8469C278.137 101.341 285.629 102 290.964 102V66ZM294.575 70.6299C293.92 67.3554 293.105 63.672 291.996 59.6533L257.293 69.2267C258.104 72.168 258.729 74.9646 259.274 77.6901L294.575 70.6299ZM274.644 46.44H246.084V82.44H274.644V46.44ZM228.844 59.2677C226.687 66.4558 225.035 76.1545 224.188 80.7077L259.581 87.2923C260.654 81.5255 261.882 74.4242 263.325 69.6123L228.844 59.2677ZM241.884 66H232.644V102H241.884V66ZM232.644 66C232.283 66 234.935 65.9675 237.563 68.6865C238.754 69.9193 239.426 71.227 239.766 72.2372C240.086 73.1884 240.084 73.7797 240.084 73.8H204.084C204.084 79.8691 205.713 87.5338 211.676 93.7035C217.753 99.9925 225.685 102 232.644 102V66ZM240.084 73.8C240.084 73.9453 240.098 73.1895 240.475 71.1912C240.82 69.3668 241.366 67.0314 242.125 64.2619C243.642 58.7272 245.856 52.0193 248.527 45.1334C254.224 30.4424 260.702 18.3398 265.189 13.6656L239.219 -11.2656C229.307 -0.939816 220.725 17.2576 214.962 32.1166C211.903 40.0057 209.286 47.8853 207.406 54.7443C205.687 61.0139 204.084 68.1634 204.084 73.8H240.084ZM252.204 19.2H261.084V-16.8H252.204V19.2ZM261.084 19.2C261.559 19.2 261.805 19.2582 261.878 19.2781C261.951 19.298 261.944 19.3047 261.895 19.2754C261.801 19.2197 261.77 19.168 261.765 19.1604L292.563 0.519547C286.89 -8.85439 276.065 -16.8 261.084 -16.8V19.2ZM261.729 19.1009C268.307 30.064 280.022 60.4497 283.439 86.3541L319.13 81.6459C315.107 51.1503 301.861 16.0159 292.599 0.579071L261.729 19.1009ZM287.233 41.481C284.677 32.7923 280.711 21.66 276.645 13.6737L244.563 30.0063C247.218 35.22 250.451 44.0077 252.696 51.639L287.233 41.481ZM244.676 13.4566C240.326 21.7222 236.328 32.6666 233.736 41.481L268.273 51.639C270.48 44.1334 273.683 35.6378 276.533 30.2234L244.676 13.4566ZM251.004 64.56H269.964V28.56H251.004V64.56ZM379.635 82.44L387.961 98.3985L397.635 93.3513V82.44H379.635ZM352.515 75.84L368.964 68.5295L368.93 68.4549L368.897 68.3805L352.515 75.84ZM346.395 62.4L362.777 54.9405L362.77 54.9251L362.763 54.9098L346.395 62.4ZM335.475 53.28L337.463 35.3901L337.364 35.3792L337.266 35.3693L335.475 53.28ZM331.875 52.92L333.666 35.0093L313.875 33.0302V52.92H331.875ZM331.875 84V102H349.875V84H331.875ZM309.075 3.6L303.066 -13.3673L291.075 -9.12056V3.6H309.075ZM358.395 46.92L354.406 29.3676L302.322 41.2047L350.947 63.3066L358.395 46.92ZM367.515 58.32L351.242 66.0128L351.245 66.0193L367.515 58.32ZM373.875 71.76L357.605 79.4593L357.65 79.5557L357.697 79.6516L373.875 71.76ZM379.635 81.84H397.635V75.3231L393.463 70.3167L379.635 81.84ZM331.875 18.48L329.329 0.660915L313.875 2.86872V18.48H331.875ZM331.875 36.72H313.875V52.5247L329.547 54.5688L331.875 36.72ZM371.309 66.4815C371.834 66.2074 372.121 66.1311 372.038 66.1561C371.976 66.1747 371.734 66.2417 371.284 66.3188C370.361 66.4769 369.028 66.6 367.395 66.6V102.6C373.218 102.6 381.307 101.87 387.961 98.3985L371.309 66.4815ZM367.395 66.6C366.196 66.6 366.499 66.3549 367.414 66.9184C367.84 67.1806 368.223 67.5162 368.523 67.8717C368.814 68.2156 368.938 68.4721 368.964 68.5295L336.066 83.1505C338.562 88.7645 342.628 93.9334 348.536 97.5716C354.371 101.165 360.914 102.6 367.395 102.6V66.6ZM368.897 68.3805L362.777 54.9405L330.013 69.8595L336.133 83.2995L368.897 68.3805ZM362.763 54.9098C360.908 50.8581 358.097 45.4404 352.99 41.3544C347.323 36.821 341.263 35.8123 337.463 35.3901L333.487 71.1699C334.295 71.2597 334.101 71.2943 333.481 71.0944C332.676 70.8348 331.573 70.324 330.5 69.4656C330.015 69.0773 329.655 68.7123 329.411 68.4347C329.292 68.2992 329.206 68.1897 329.15 68.1154C329.094 68.0416 329.067 68.0002 329.066 68C329.066 67.9997 329.072 68.0086 329.084 68.0279C329.096 68.0471 329.114 68.0759 329.137 68.1151C329.184 68.1944 329.249 68.3105 329.334 68.47C329.508 68.7956 329.737 69.2545 330.027 69.8902L362.763 54.9098ZM337.266 35.3693L333.666 35.0093L330.084 70.8307L333.684 71.1907L337.266 35.3693ZM313.875 52.92V84H349.875V52.92H313.875ZM331.875 66H323.115V102H331.875V66ZM323.115 66C322.349 66 323.648 65.8315 325.247 67.3712C326.887 68.949 327.075 70.6289 327.075 70.92H291.075C291.075 78.8911 293.843 87.111 300.283 93.3088C306.682 99.4685 315.001 102 323.115 102V66ZM327.075 70.92V3.6H291.075V70.92H327.075ZM315.084 20.5673C316.147 20.1908 319.251 19.4815 323.72 18.8675C327.953 18.2859 331.845 18 333.915 18V-18C329.625 -18 323.977 -17.5059 318.82 -16.7975C313.899 -16.1215 307.763 -15.0308 303.066 -13.3673L315.084 20.5673ZM333.915 18H343.155V-18H333.915V18ZM343.155 18C348.903 18 352.238 19.5778 353.736 20.7791C354.894 21.7077 355.515 22.7449 355.515 24.72H391.515C391.515 11.6951 385.836 0.372326 376.254 -7.30915C367.012 -14.7178 355.167 -18 343.155 -18V18ZM355.515 24.72C355.515 26.3576 354.963 27.8531 354.229 28.8915C353.875 29.3923 353.585 29.6337 353.5 29.6957C353.408 29.7628 353.686 29.5313 354.406 29.3676L362.384 64.4724C380.175 60.429 391.515 42.316 391.515 24.72H355.515ZM350.947 63.3066C350.711 63.1994 350.282 62.9677 349.807 62.5881C349.343 62.2166 349.089 61.9068 349.043 61.8463C349.029 61.8282 349.214 62.0671 349.619 62.7915C350.028 63.5216 350.543 64.5352 351.242 66.0128L383.788 50.6272C380.568 43.8156 376.214 35.2475 365.843 30.5334L350.947 63.3066ZM351.245 66.0193L357.605 79.4593L390.145 64.0607L383.785 50.6207L351.245 66.0193ZM357.697 79.6516C360.043 84.4606 363.038 90.0404 365.807 93.3633L393.463 70.3167C393.804 70.7262 393.88 70.8796 393.653 70.5317C393.472 70.2538 393.192 69.7986 392.817 69.1453C392.067 67.8396 391.115 66.0464 390.053 63.8684L357.697 79.6516ZM361.635 81.84V82.44H397.635V81.84H361.635ZM341.115 0H336.435V36H341.115V0ZM336.435 0C333.935 0 330.643 0.47327 329.329 0.660915L334.421 36.2991C335.165 36.1927 335.862 36.1011 336.413 36.0399C336.687 36.0095 336.856 35.9942 336.934 35.9882C337.063 35.9783 336.85 36 336.435 36V0ZM313.875 18.48V36.72H349.875V18.48H313.875ZM329.547 54.5688C333.687 55.1088 337.8 55.08 340.995 55.08V19.08C337.23 19.08 335.583 19.0512 334.203 18.8712L329.547 54.5688ZM340.995 55.08C349.186 55.08 356.562 51.7928 361.714 46.0211C366.565 40.5857 368.715 33.7897 368.715 27.48H332.715C332.715 25.8503 333.245 23.8543 334.856 22.0489C336.768 19.9072 339.284 19.08 340.995 19.08V55.08ZM368.715 27.48C368.715 21.7086 367.265 14.0824 361.296 7.94259C355.236 1.70904 347.44 0 341.115 0V36C341.39 36 338.395 36.031 335.484 33.0374C332.665 30.1376 332.715 27.2514 332.715 27.48H368.715ZM427.328 20.28V2.28H409.328V20.28H427.328ZM427.328 84V102H445.328V84H427.328ZM404.527 20.28H422.527V2.28H404.527V20.28ZM380.888 20.28H362.888V38.28H380.888V20.28ZM451.807 1.32H469.807V-16.68H451.807V1.32ZM433.807 9.24C433.807 7.20983 434.357 5.76505 434.751 4.98851C435.158 4.18878 435.591 3.70404 435.902 3.41907C436.45 2.91791 437.479 2.28 439.087 2.28V38.28C447.656 38.28 455.045 34.7021 460.213 29.9709C465.109 25.4879 469.807 18.2291 469.807 9.24H433.807ZM439.087 2.28H427.328V38.28H439.087V2.28ZM409.328 20.28V84H445.328V20.28H409.328ZM427.328 66H417.367V102H427.328V66ZM417.367 66C416.316 66 417.646 65.7118 419.594 67.2631C420.667 68.1176 421.529 69.2426 422.053 70.4348C422.547 71.5602 422.527 72.2552 422.527 72.12H386.527C386.527 81.0044 389.815 89.5705 397.171 95.4268C403.829 100.728 411.579 102 417.367 102V66ZM422.527 72.12V20.28H386.527V72.12H422.527ZM404.527 2.28H380.888V38.28H404.527V2.28ZM398.888 20.28V12.36H362.888V20.28H398.888ZM398.888 12.36C398.888 14.9266 397.87 16.7077 396.796 17.7666C395.451 19.093 394.062 19.32 393.728 19.32V-16.68C375.625 -16.68 362.888 -2.85765 362.888 12.36H398.888ZM393.728 19.32H451.807V-16.68H393.728V19.32ZM433.807 1.32V9.24H469.807V1.32H433.807ZM524.409 84V102H544.94L542.255 81.6459L524.409 84ZM500.049 74.16L517.721 70.7396L517.711 70.6847L517.7 70.6299L500.049 74.16ZM497.769 64.44L515.121 59.6533L511.476 46.44H497.769V64.44ZM469.209 64.44V46.44H455.817L451.969 59.2677L469.209 64.44ZM465.009 84V102H479.969L482.706 87.2923L465.009 84ZM475.329 1.19999V-16.8H467.657L462.344 -11.2656L475.329 1.19999ZM500.289 9.84L515.724 0.579071L515.706 0.549274L515.688 0.519547L500.289 9.84ZM493.089 46.56V64.56H517.146L510.358 41.481L493.089 46.56ZM483.729 21.84L499.77 13.6737L483.995 -17.3129L467.801 13.4566L483.729 21.84ZM474.129 46.56L456.861 41.481L450.073 64.56H474.129V46.56ZM524.409 66H514.089V102H524.409V66ZM514.089 66C512.815 66 512.34 65.9005 512.378 65.9086C512.468 65.928 513.342 66.1287 514.489 66.8931C515.727 67.7188 516.67 68.7932 517.259 69.8094C517.777 70.7035 517.806 71.1774 517.721 70.7396L482.377 77.5804C483.685 84.3353 486.985 91.8237 494.52 96.8469C501.262 101.341 508.754 102 514.089 102V66ZM517.7 70.6299C517.045 67.3554 516.23 63.672 515.121 59.6533L480.418 69.2267C481.229 72.168 481.854 74.9646 482.399 77.6901L517.7 70.6299ZM497.769 46.44H469.209V82.44H497.769V46.44ZM451.969 59.2677C449.812 66.4558 448.16 76.1545 447.313 80.7077L482.706 87.2923C483.779 81.5255 485.007 74.4242 486.45 69.6123L451.969 59.2677ZM465.009 66H455.769V102H465.009V66ZM455.769 66C455.408 66 458.06 65.9675 460.688 68.6865C461.879 69.9193 462.551 71.227 462.891 72.2372C463.211 73.1884 463.209 73.7797 463.209 73.8H427.209C427.209 79.8691 428.838 87.5338 434.801 93.7035C440.878 99.9925 448.81 102 455.769 102V66ZM463.209 73.8C463.209 73.9453 463.223 73.1895 463.6 71.1912C463.945 69.3668 464.491 67.0314 465.25 64.2619C466.767 58.7272 468.981 52.0193 471.652 45.1334C477.349 30.4424 483.827 18.3398 488.314 13.6656L462.344 -11.2656C452.432 -0.939816 443.85 17.2576 438.087 32.1166C435.028 40.0057 432.411 47.8853 430.531 54.7443C428.812 61.0139 427.209 68.1634 427.209 73.8H463.209ZM475.329 19.2H484.209V-16.8H475.329V19.2ZM484.209 19.2C484.684 19.2 484.93 19.2582 485.003 19.2781C485.076 19.298 485.069 19.3047 485.02 19.2754C484.926 19.2197 484.895 19.168 484.89 19.1604L515.688 0.519547C510.015 -8.85439 499.19 -16.8 484.209 -16.8V19.2ZM484.854 19.1009C491.432 30.064 503.147 60.4497 506.564 86.3541L542.255 81.6459C538.232 51.1503 524.986 16.0159 515.724 0.579071L484.854 19.1009ZM510.358 41.481C507.802 32.7923 503.836 21.66 499.77 13.6737L467.688 30.0063C470.343 35.22 473.576 44.0077 475.821 51.639L510.358 41.481ZM467.801 13.4566C463.451 21.7222 459.453 32.6666 456.861 41.481L491.398 51.639C493.605 44.1334 496.808 35.6378 499.658 30.2234L467.801 13.4566ZM474.129 64.56H493.089V28.56H474.129V64.56Z" fill="white" mask="url(#path-1-outside-1_15_23)"/>
</svg>
