<svg width="17" height="20" viewBox="0 0 17 20" fill="none" xmlns="http://www.w3.org/2000/svg">
<path fill-rule="evenodd" clip-rule="evenodd" d="M12.1546 19.1509L5.58836 18.9398L5.67914 17.6656C2.9299 16.709 0.745117 14.3737 0.745117 10.677C2.74636 10.677 13.8736 10.5008 16.6603 10.5008C16.6603 14.1316 14.6512 16.4631 12.0618 17.5146L12.1546 19.1509ZM14.6729 9.37379C14.6785 9.23475 14.6546 9.09609 14.6028 8.96658C14.5509 8.83707 14.4722 8.71953 14.3717 8.62142C14.2711 8.5233 14.1509 8.44674 14.0186 8.39658C13.8863 8.34643 13.7449 8.32377 13.6032 8.33005H13.5223L13.4039 8.17126C13.4781 8.0122 13.5152 7.83885 13.5124 7.66391C13.5201 7.49441 13.4833 7.32581 13.4055 7.17426C13.3278 7.0227 13.2117 6.89326 13.0683 6.79832L13.5006 5.92886C13.7988 6.09301 14.0473 6.33186 14.2206 6.62103C14.394 6.91021 14.486 7.23934 14.4874 7.57483C14.8426 7.7214 15.1451 7.96874 15.3561 8.28512C15.567 8.6015 15.6769 8.9725 15.6715 9.35055C15.6715 9.42801 15.6715 9.96247 15.6715 9.96247H14.6847C14.6847 9.96247 14.6729 9.39316 14.6729 9.37379ZM10.4217 9.87726L12.348 1.60478L13.6367 1.84103L11.4796 9.90244L10.4217 9.87726ZM8.66522 9.80368L9.3244 5.25498C9.13112 5.12508 8.90143 5.05741 8.66719 5.06133C8.43059 5.05135 8.19798 5.12355 8.01027 5.26522C7.82256 5.4069 7.69178 5.60897 7.64091 5.83591L7.50276 5.85915C7.40128 5.73579 7.27243 5.63678 7.12605 5.56966C6.97967 5.50255 6.81961 5.4691 6.65806 5.47186C6.51629 5.46586 6.37479 5.48877 6.24251 5.53915C6.11022 5.58953 5.99002 5.66627 5.88949 5.76454C5.78897 5.8628 5.71031 5.98046 5.65848 6.11006C5.60664 6.23967 5.58277 6.37842 5.58836 6.51754C5.58836 6.54658 5.58836 6.57369 5.58836 6.60274L5.40876 6.71893C5.25315 6.64726 5.08331 6.61023 4.91141 6.61049C4.76957 6.60419 4.62794 6.6269 4.49552 6.67717C4.36309 6.72745 4.24277 6.80418 4.14218 6.90251C4.0416 7.00084 3.96294 7.11861 3.91122 7.24835C3.85949 7.37809 3.83582 7.51697 3.84171 7.65617C3.83884 7.85657 3.88772 8.05443 3.98381 8.23129L3.91474 8.33779C3.86149 8.33491 3.80812 8.33491 3.75487 8.33779C3.6132 8.33152 3.47175 8.35418 3.33947 8.40433C3.20718 8.45449 3.08696 8.53105 2.9864 8.62916C2.88584 8.72728 2.80715 8.84481 2.7553 8.97433C2.70344 9.10384 2.67957 9.2425 2.68518 9.38154C2.68518 9.39509 2.68518 9.96247 2.68518 9.96247H1.69048V9.36604C1.68206 8.98565 1.7905 8.61157 2.0017 8.29246C2.21289 7.97335 2.51706 7.72398 2.87464 7.57677C2.87672 7.07615 3.08033 6.59661 3.44112 6.24261C3.80191 5.88862 4.29066 5.68884 4.80089 5.6868C4.95162 5.33564 5.20649 5.03707 5.5324 4.82987C5.85832 4.62268 6.2402 4.51643 6.62845 4.52494C6.85167 4.52485 7.0735 4.55949 7.28566 4.62757C7.65769 4.27974 8.15333 4.08799 8.66719 4.09311C8.94279 4.09173 9.21589 4.1444 9.47045 4.24803L10.0112 0.504883L11.298 0.62107L9.66781 9.85015L8.66522 9.80368Z" fill="black"/>
</svg>
