<svg width="22" height="19" viewBox="0 0 22 19" fill="none" xmlns="http://www.w3.org/2000/svg">
<path fill-rule="evenodd" clip-rule="evenodd" d="M21.3484 15.3623L17.0261 18.1043L10.1935 16.3286L7.62781 18.0346L0.771484 16.257L0.864244 9.80861L5.2575 7.06661L6.29167 7.33771L6.40417 2.80063L11.8829 0.96875L17.0834 3.25182L17.0557 7.76373L21.1569 8.83845L21.3484 15.3623ZM16.217 16.3848L16.1874 12.2621L12.3763 11.3771L11.6086 11.6521L11.581 15.2074L16.217 16.3848ZM2.15696 15.1377L7.20151 16.4932L7.16401 12.3841L2.17867 11.1312L2.15696 15.1377ZM6.24628 9.45811L6.26799 8.58865L5.57723 8.4318L2.82799 10.0061L7.40874 11.259L8.58304 10.5774L6.24628 9.45811ZM7.52913 8.70484L11.0816 10.3315V6.36174L7.52913 4.68478V8.70484ZM11.727 2.16547L7.97714 3.4474L11.6382 5.11661L15.4571 3.69333L11.727 2.16547ZM17.0557 9.09987V9.71566L14.2137 10.7284L16.9314 11.3771L19.801 9.80474L17.0557 9.09987Z" fill="black"/>
</svg>
