<svg width="47" height="47" viewBox="0 0 47 47" fill="none" xmlns="http://www.w3.org/2000/svg">
<path d="M41.6903 0H5.30963C2.57075 0 0.348633 2.22243 0.348633 4.96171V41.3475C0.348633 44.0868 2.57075 46.3092 5.30963 46.3092H41.6903C44.4292 46.3092 46.6513 44.0868 46.6513 41.3475V4.96171C46.6513 2.22243 44.4292 0 41.6903 0ZM36.6363 16.415C36.6569 16.7044 36.6569 17.0042 36.6569 17.2936C36.6569 26.2557 29.8356 36.5822 17.3711 36.5822C13.5263 36.5822 9.96057 35.4659 6.9633 33.5432C7.51108 33.6052 8.03818 33.6259 8.59629 33.6259C11.7693 33.6259 14.6839 32.5508 17.0093 30.7316C14.0327 30.6695 11.5316 28.7159 10.6737 26.0283C11.7176 26.1833 12.6581 26.1833 13.733 25.9042C10.6324 25.2737 8.3069 22.5447 8.3069 19.2473V19.1646C9.20608 19.6711 10.2603 19.9812 11.3662 20.0225C10.4364 19.404 9.67426 18.5649 9.14766 17.5801C8.62106 16.5953 8.34642 15.4954 8.34824 14.3786C8.34824 13.1175 8.67898 11.9598 9.2681 10.9571C12.6064 15.0712 17.6191 17.7588 23.2416 18.0482C22.2804 13.4483 25.7221 9.71667 29.8562 9.71667C31.8096 9.71667 33.5667 10.5333 34.8069 11.8564C36.3365 11.567 37.8042 10.9984 39.1064 10.2232C38.6 11.7944 37.5355 13.1175 36.1298 13.9548C37.4941 13.8101 38.817 13.4276 40.0366 12.9004C39.1168 14.2546 37.9592 15.4536 36.6363 16.415Z" fill="black"/>
</svg>
